mtllib materials.mtl
v 2.980232E-08 0.386714 0.295
v 0.1475 0.386714 0.2554775
v 0.1475 0.3067141 0.2554775
v 2.980232E-08 0.3067139 0.295
v 0.2554775 0.386714 0.1475
v 0.2554775 0.3067141 0.1475
v 0.295 0.386714 -9.313226E-09
v 0.295 0.3067141 -2.235174E-08
v 0.2554775 0.386714 -0.1475
v 0.2554775 0.3067141 -0.1475
v 0.1475 0.386714 -0.2554775
v 0.1475 0.3067141 -0.2554775
v 0 0.3867141 -0.295
v 0 0.3067141 -0.295
v -0.1475 0.386714 -0.2554774
v -0.1475 0.3067141 -0.2554775
v -0.2554775 0.386714 -0.1475
v -0.2554775 0.3067141 -0.1475
v -0.295 0.386714 7.450581E-09
v -0.295 0.3067141 -6.519258E-09
v -0.2554775 0.386714 0.1475
v -0.2554775 0.3067141 0.1475
v -0.1474999 0.386714 0.2554775
v -0.1474999 0.3067141 0.2554775
v -0.2069368 0.4267139 0.1194749
v -0.1194749 0.4267139 0.2069367
v -0.23895 0.4267139 -4.004687E-08
v -0.2069368 0.4267139 -0.119475
v -0.1194751 0.4267139 -0.2069368
v -5.960464E-08 0.4267141 -0.23895
v 0.119475 0.4267139 -0.2069367
v 0.2069367 0.4267139 -0.1194751
v 0.23895 0.4267139 4.656613E-09
v 0.2069367 0.4267139 0.1194749
v 0.1194749 0.4267139 0.2069368
v -5.960464E-08 0.4267139 0.2389499
v -0.09500003 0.2417144 -5.867332E-08
v -0.08227244 0.2417144 0.04749995
v -0.08227217 -1.438286 0.04749996
v -0.09499976 -1.438286 -5.867332E-08
v -0.04750001 0.2417144 0.08227238
v -0.04749972 -1.438286 0.0822724
v -2.980232E-08 0.2417144 0.09499997
v 2.682209E-07 -1.438286 0.095
v 0.04749998 0.2417144 0.08227238
v 0.04750028 -1.438286 0.0822724
v 0.0822724 0.2417144 0.04749997
v 0.08227271 -1.438286 0.04749998
v 0.095 0.2417144 -4.470348E-08
v 0.0950003 -1.438286 -4.470348E-08
v 0.08227241 0.2417144 -0.04750006
v 0.08227271 -1.438286 -0.04750008
v 0.04749998 0.2417144 -0.08227247
v 0.0475003 -1.438286 -0.08227249
v 0 0.2417144 -0.09500006
v 2.980232E-07 -1.438286 -0.09500009
v -0.04750001 0.2417144 -0.08227248
v -0.04749972 -1.438286 -0.08227251
v -0.08227244 0.2417144 -0.04750004
v -0.08227217 -1.438286 -0.04750005
v -0.06954479 0.3017143 -0.1204551
v -0.1204551 0.3017143 -0.06954466
v -0.01403052 -1.858285 0.00375978
v -0.003759235 -1.858285 0.01403114
v 0.01027161 -1.858285 0.01027157
v 0.01403117 -1.858285 -0.003759197
v 0.003759861 -1.858285 -0.01403073
v -0.01027095 -1.858285 -0.01027098
v 2.980232E-08 0.3017143 -0.1390894
v 0.06954476 0.3017143 -0.120455
v 0.1204551 0.3017143 -0.06954471
v 0.1390896 0.3017143 1.15484E-07
v 0.1204551 0.3017143 0.06954496
v 0.06954476 0.3017143 0.1204553
v -2.980232E-08 0.3017143 0.1390897
v -0.06954479 0.3017143 0.1204552
v -0.1204551 0.3017143 0.06954495
v -0.1390896 0.3017143 1.825392E-07
v -0.09999999 0.1767142 -5.960464E-08
v -0.08660254 0.1767142 0.04999993
v -0.08660257 0.1576666 0.04999994
v -0.09999999 0.1576666 -5.867332E-08
v -0.05000001 0.1767142 0.08660246
v -0.05000001 0.1576666 0.08660249
v -2.980232E-08 0.1767142 0.09999993
v -2.980232E-08 0.1576666 0.09999995
v 0.04999995 0.1767142 0.08660246
v 0.04999998 0.1576666 0.08660249
v 0.08660248 0.1767143 0.04999995
v 0.08660251 0.1576666 0.04999996
v 0.09999995 0.1767143 -4.470348E-08
v 0.09999996 0.1576666 -4.377216E-08
v 0.08660248 0.1767143 -0.05000004
v 0.08660252 0.1576666 -0.05000005
v 0.04999997 0.1767142 -0.08660255
v 0.04999998 0.1576666 -0.08660258
v 0 0.1767142 -0.1
v 0 0.1576666 -0.1
v -0.04999998 0.1767142 -0.08660256
v -0.04999998 0.1576666 -0.08660258
v -0.08660254 0.1767142 -0.05000002
v -0.08660254 0.1576666 -0.05000003
v -0.09999996 0.1467142 -5.960464E-08
v -0.08660251 0.1467142 0.04999993
v -0.08660251 0.1276666 0.04999994
v -0.09999996 0.1276666 -5.867332E-08
v -0.04999998 0.1467142 0.08660246
v -0.05000001 0.1276666 0.08660249
v 0 0.1467142 0.09999993
v 0 0.1276666 0.09999995
v 0.04999998 0.1467142 0.08660246
v 0.05000001 0.1276666 0.08660249
v 0.08660251 0.1467143 0.04999995
v 0.08660254 0.1276666 0.04999996
v 0.09999998 0.1467143 -4.470348E-08
v 0.09999999 0.1276666 -4.377216E-08
v 0.08660251 0.1467143 -0.05000004
v 0.08660255 0.1276666 -0.05000005
v 0.05 0.1467142 -0.08660255
v 0.05000001 0.1276666 -0.08660258
v 2.980232E-08 0.1467142 -0.1
v 2.980232E-08 0.1276666 -0.1
v -0.04999995 0.1467142 -0.08660256
v -0.04999995 0.1276666 -0.08660258
v -0.08660251 0.1467142 -0.05000002
v -0.08660251 0.1276666 -0.05000003
v -0.09999999 0.1167142 -5.960464E-08
v -0.08660254 0.1167142 0.04999993
v -0.08660257 0.09766662 0.04999994
v -0.09999999 0.09766662 -5.867332E-08
v -0.05000001 0.1167142 0.08660246
v -0.05000001 0.09766662 0.08660249
v -2.980232E-08 0.1167142 0.09999993
v -2.980232E-08 0.09766662 0.09999995
v 0.04999995 0.1167142 0.08660246
v 0.04999998 0.09766662 0.08660249
v 0.08660248 0.1167144 0.04999995
v 0.08660251 0.09766662 0.04999996
v 0.09999995 0.1167144 -4.470348E-08
v 0.09999996 0.09766662 -4.377216E-08
v 0.08660248 0.1167144 -0.05000004
v 0.08660252 0.09766662 -0.05000005
v 0.04999997 0.1167142 -0.08660255
v 0.04999998 0.09766662 -0.08660258
v 0 0.1167142 -0.1
v 0 0.09766662 -0.1
v -0.04999998 0.1167142 -0.08660256
v -0.04999998 0.09766662 -0.08660258
v -0.08660254 0.1167142 -0.05000002
v -0.08660254 0.09766662 -0.05000003
vn 0.258819 -1.822967E-07 0.9659258
vn 0.7071068 -1.000825E-07 0.7071068
vn 0.9659258 4.262743E-08 0.2588191
vn 0.9659259 3.340556E-07 -0.258819
vn 0.7071067 2.103345E-07 -0.7071069
vn 0.2588191 1.449676E-07 -0.9659258
vn -0.2588193 2.081992E-07 -0.9659258
vn -0.707107 3.775039E-07 -0.7071066
vn -0.9659258 2.733323E-07 -0.2588191
vn -0.9659258 2.316618E-07 0.2588192
vn -0.7071066 -1.986611E-07 0.7071069
vn -0.2588188 -1.732234E-07 0.9659259
vn -0.4201845 0.8042946 0.4201847
vn -1.19682E-10 -1 -1.746278E-07
vn -0.5739831 0.8042945 0.1537984
vn -0.5739834 0.8042942 -0.1537983
vn -0.420185 0.8042943 -0.4201848
vn -0.1537989 0.8042941 -0.5739834
vn 0.1537987 0.8042947 -0.5739827
vn 0.4201841 0.8042951 -0.4201841
vn 0.5739824 0.8042949 -0.1537981
vn 0.5739823 0.804295 0.1537982
vn 0.4201843 0.8042949 0.4201842
vn 0.1537979 0.8042949 0.5739825
vn -0.1537981 0.8042951 0.5739822
vn 1.19682E-10 1 1.746278E-07
vn -0.9659259 -1.586059E-07 0.2588191
vn -0.707107 -1.215217E-07 0.7071068
vn -0.2588191 -2.792391E-08 0.9659259
vn 0.258819 5.262935E-08 0.9659259
vn 0.7071068 1.325317E-07 0.7071069
vn 0.9659259 1.775071E-07 0.2588193
vn 0.965926 1.791479E-07 -0.258819
vn 0.7071069 1.381477E-07 -0.7071069
vn 0.2588191 6.269413E-08 -0.9659259
vn -0.2588189 -2.61097E-08 -0.9659259
vn -0.7071068 -1.176478E-07 -0.7071069
vn -0.965926 -1.558748E-07 -0.258819
vn -0.5766215 -0.5788059 -0.5766209
vn -0.9499958 -0.1808653 0.2545507
vn -0.6948661 -0.1852675 0.694865
vn -0.2545514 -0.1808646 0.9499956
vn 0.2543386 -0.1852672 0.949204
vn 0.695445 -0.1808648 0.6954456
vn 0.9492038 -0.1852675 0.2543387
vn 0.9499957 -0.1808655 -0.2545506
vn 0.694867 -0.1852684 -0.6948639
vn 0.2545515 -0.1808656 -0.9499954
vn -0.2543404 -0.1852686 -0.9492032
vn -0.6954452 -0.180866 -0.695445
vn -0.9492037 -0.1852682 -0.2543391
vn 1.748456E-07 -1 0
vn -0.2110572 -0.5788055 -0.7876796
vn 0.2110583 -0.5788051 -0.7876796
vn 0.576621 -0.5788057 -0.5766214
vn 0.7876787 -0.5788066 -0.2110578
vn 0.7876782 -0.5788074 0.2110578
vn 0.57662 -0.5788081 0.5766201
vn 0.2110575 -0.5788084 0.7876774
vn -0.2110579 -0.5788081 0.7876775
vn -0.5766199 -0.5788077 0.5766205
vn -0.7876784 -0.578807 0.2110575
vn -0.7876792 -0.5788059 -0.2110579
vn -1.748456E-07 1 0
vn -0.9659259 1.450639E-06 0.258819
vn -0.7071071 1.413727E-06 0.7071067
vn -0.2588191 2.166502E-06 0.9659259
vn 0.2588191 2.049544E-06 0.9659259
vn 0.7071069 1.600891E-06 0.7071068
vn 0.9659259 1.259084E-06 0.2588192
vn 0.9659259 2.100036E-06 -0.2588193
vn 0.707107 1.589127E-06 -0.7071067
vn 0.2588192 1.785006E-06 -0.9659259
vn -0.258819 8.601705E-07 -0.965926
vn -0.7071067 1.131889E-06 -0.707107
vn -0.965926 9.086164E-07 -0.2588189
vn -1.748456E-07 1 0
vn 1.748456E-07 -1 0
vn -0.9659259 1.450639E-06 0.258819
vn -0.7071071 1.413727E-06 0.7071067
vn -0.2588191 2.166502E-06 0.9659259
vn 0.2588191 2.049544E-06 0.9659259
vn 0.7071069 1.600891E-06 0.7071068
vn 0.9659259 1.259084E-06 0.2588192
vn 0.9659259 2.100036E-06 -0.2588193
vn 0.707107 1.589127E-06 -0.7071067
vn 0.2588192 1.785006E-06 -0.9659259
vn -0.258819 8.601705E-07 -0.965926
vn -0.7071067 1.131889E-06 -0.707107
vn -0.965926 9.086164E-07 -0.2588189
vn -1.748456E-07 1 0
vn 1.748456E-07 -1 0
vn -0.9659259 1.450639E-06 0.258819
vn -0.7071071 1.413727E-06 0.7071067
vn -0.2588191 2.166502E-06 0.9659259
vn 0.2588191 2.049544E-06 0.9659259
vn 0.7071069 1.600891E-06 0.7071068
vn 0.9659259 1.259084E-06 0.2588192
vn 0.9659259 2.100036E-06 -0.2588193
vn 0.707107 1.589127E-06 -0.7071067
vn 0.2588192 1.785006E-06 -0.9659259
vn -0.258819 8.601705E-07 -0.965926
vn -0.7071067 1.131889E-06 -0.707107
vn -0.965926 9.086164E-07 -0.2588189
vn -1.748456E-07 1 0
vn 1.748456E-07 -1 0
usemtl mat22
f 4//1 3//1 2//1 1//1
f 3//2 6//2 5//2 2//2
f 6//3 8//3 7//3 5//3
f 8//4 10//4 9//4 7//4
f 10//5 12//5 11//5 9//5
f 12//6 14//6 13//6 11//6
f 14//7 16//7 15//7 13//7
f 16//8 18//8 17//8 15//8
f 18//9 20//9 19//9 17//9
f 20//10 22//10 21//10 19//10
f 22//11 24//11 23//11 21//11
f 24//12 4//12 1//12 23//12
f 26//13 25//13 21//13 23//13
f 24//14 22//14 20//14 18//14 16//14 14//14 12//14 10//14 8//14 6//14 3//14 4//14
f 25//15 27//15 19//15 21//15
f 27//16 28//16 17//16 19//16
f 28//17 29//17 15//17 17//17
f 29//18 30//18 13//18 15//18
f 30//19 31//19 11//19 13//19
f 31//20 32//20 9//20 11//20
f 32//21 33//21 7//21 9//21
f 33//22 34//22 5//22 7//22
f 34//23 35//23 2//23 5//23
f 35//24 36//24 1//24 2//24
f 36//25 26//25 23//25 1//25
f 36//26 35//26 34//26 33//26 32//26 31//26 30//26 29//26 28//26 27//26 25//26 26//26
f 40//27 39//27 38//27 37//27
f 39//28 42//28 41//28 38//28
f 42//29 44//29 43//29 41//29
f 44//30 46//30 45//30 43//30
f 46//31 48//31 47//31 45//31
f 48//32 50//32 49//32 47//32
f 50//33 52//33 51//33 49//33
f 52//34 54//34 53//34 51//34
f 54//35 56//35 55//35 53//35
f 56//36 58//36 57//36 55//36
f 58//37 60//37 59//37 57//37
f 60//38 40//38 37//38 59//38
f 62//39 61//39 57//39 59//39
f 63//40 39//40 40//40
f 63//41 64//41 42//41 39//41
f 64//42 44//42 42//42
f 64//43 65//43 46//43 44//43
f 65//44 48//44 46//44
f 65//45 66//45 50//45 48//45
f 66//46 52//46 50//46
f 66//47 67//47 54//47 52//47
f 67//48 56//48 54//48
f 67//49 68//49 58//49 56//49
f 68//50 60//50 58//50
f 68//51 63//51 40//51 60//51
f 68//52 67//52 66//52 65//52 64//52 63//52
f 61//53 69//53 55//53 57//53
f 69//54 70//54 53//54 55//54
f 70//55 71//55 51//55 53//55
f 71//56 72//56 49//56 51//56
f 72//57 73//57 47//57 49//57
f 73//58 74//58 45//58 47//58
f 74//59 75//59 43//59 45//59
f 75//60 76//60 41//60 43//60
f 76//61 77//61 38//61 41//61
f 77//62 78//62 37//62 38//62
f 78//63 62//63 59//63 37//63
f 78//64 77//64 76//64 75//64 74//64 73//64 72//64 71//64 70//64 69//64 61//64 62//64
usemtl mat15
f 82//65 81//65 80//65 79//65
f 81//66 84//66 83//66 80//66
f 84//67 86//67 85//67 83//67
f 86//68 88//68 87//68 85//68
f 88//69 90//69 89//69 87//69
f 90//70 92//70 91//70 89//70
f 92//71 94//71 93//71 91//71
f 94//72 96//72 95//72 93//72
f 96//73 98//73 97//73 95//73
f 98//74 100//74 99//74 97//74
f 100//75 102//75 101//75 99//75
f 102//76 82//76 79//76 101//76
f 79//77 80//77 83//77 85//77 87//77 89//77 91//77 93//77 95//77 97//77 99//77 101//77
f 102//78 100//78 98//78 96//78 94//78 92//78 90//78 88//78 86//78 84//78 81//78 82//78
f 106//79 105//79 104//79 103//79
f 105//80 108//80 107//80 104//80
f 108//81 110//81 109//81 107//81
f 110//82 112//82 111//82 109//82
f 112//83 114//83 113//83 111//83
f 114//84 116//84 115//84 113//84
f 116//85 118//85 117//85 115//85
f 118//86 120//86 119//86 117//86
f 120//87 122//87 121//87 119//87
f 122//88 124//88 123//88 121//88
f 124//89 126//89 125//89 123//89
f 126//90 106//90 103//90 125//90
f 103//91 104//91 107//91 109//91 111//91 113//91 115//91 117//91 119//91 121//91 123//91 125//91
f 126//92 124//92 122//92 120//92 118//92 116//92 114//92 112//92 110//92 108//92 105//92 106//92
f 130//93 129//93 128//93 127//93
f 129//94 132//94 131//94 128//94
f 132//95 134//95 133//95 131//95
f 134//96 136//96 135//96 133//96
f 136//97 138//97 137//97 135//97
f 138//98 140//98 139//98 137//98
f 140//99 142//99 141//99 139//99
f 142//100 144//100 143//100 141//100
f 144//101 146//101 145//101 143//101
f 146//102 148//102 147//102 145//102
f 148//103 150//103 149//103 147//103
f 150//104 130//104 127//104 149//104
f 127//105 128//105 131//105 133//105 135//105 137//105 139//105 141//105 143//105 145//105 147//105 149//105
f 150//106 148//106 146//106 144//106 142//106 140//106 138//106 136//106 134//106 132//106 129//106 130//106
